<svg width="70" height="65" viewBox="0 0 70 65" fill="none" xmlns="http://www.w3.org/2000/svg">
<path d="M16.6008 17.5997C16.6008 17.5997 13.5 4.5 25.0001 2.49999C37.1889 1 38.5093 12.3108 37.189 14.6038C26.5 14.6038 16.6008 17.5997 16.6008 17.5997Z" fill="#FACA42" stroke="#1F252C" stroke-width="2" stroke-miterlimit="10"/>
<path d="M32.0445 41.0415C32.0445 41.0415 6.14327 47.7744 3.35937 31.1379C3.35937 31.1379 2.56251 22.2404 17.6006 17.5997C32.6386 12.9589 40.3618 14.4736 41.9071 15.6842C41.9071 15.6842 42.9662 4.48912 53.6657 3.20782C67.5 1.55113 74.332 27.0885 59.7691 34.675C59.7691 34.675 55.6016 36.5095 52.7805 33.2189C52.7805 33.2189 55.2758 35.6 56.8866 53.5442C57.2978 58.1248 53.6251 62 49.0261 62H15.4618C11.9244 62 8.82107 59.6182 8.98438 56.0845C9.15636 52.3633 10.2246 47.2352 13.8478 41.7324" fill="#FACA42"/>
<path d="M32.0445 41.0415C32.0445 41.0415 6.14327 47.7744 3.35937 31.1379C3.35937 31.1379 2.56251 22.2404 17.6006 17.5997C32.6386 12.9589 40.3618 14.4736 41.9071 15.6842C41.9071 15.6842 42.9662 4.48912 53.6657 3.20782C67.5 1.55113 74.332 27.0885 59.7691 34.675C59.7691 34.675 55.6016 36.5095 52.7805 33.2189C52.7805 33.2189 55.2758 35.6 56.8866 53.5441C57.2978 58.1248 53.6251 62 49.0261 62H15.4618C11.9244 62 8.82107 59.6182 8.98438 56.0845C9.15636 52.3633 10.2246 47.2352 13.8478 41.7324" stroke="#1F252C" stroke-width="2" stroke-linecap="round" stroke-linejoin="round"/>
<path d="M23.731 31.0152C26.5015 31.0152 28.7474 28.3372 28.7474 25.0336C28.7474 21.7301 26.5015 19.0521 23.731 19.0521C20.9605 19.0521 18.7146 21.7301 18.7146 25.0336C18.7146 28.3372 20.9605 31.0152 23.731 31.0152Z" fill="#1F252C"/>
<path d="M23.7308 29.5517C25.6797 29.5517 27.2595 27.5289 27.2595 25.0336C27.2595 22.5384 25.6797 20.5156 23.7308 20.5156C21.782 20.5156 20.2021 22.5384 20.2021 25.0336C20.2021 27.5289 21.782 29.5517 23.7308 29.5517Z" fill="#FBF7EE"/>
<path d="M25.7655 27.0104C26.6382 27.0104 27.3455 26.1096 27.3455 24.9983C27.3455 23.887 26.6382 22.9861 25.7655 22.9861C24.8929 22.9861 24.1855 23.887 24.1855 24.9983C24.1855 26.1096 24.8929 27.0104 25.7655 27.0104Z" fill="#1F252C"/>
<path d="M32.5076 31.0152C35.2781 31.0152 37.524 28.3372 37.524 25.0336C37.524 21.7301 35.2781 19.0521 32.5076 19.0521C29.7371 19.0521 27.4912 21.7301 27.4912 25.0336C27.4912 28.3372 29.7371 31.0152 32.5076 31.0152Z" fill="#1F252C"/>
<path d="M32.5077 29.5517C34.4565 29.5517 36.0364 27.5289 36.0364 25.0336C36.0364 22.5384 34.4565 20.5156 32.5077 20.5156C30.5588 20.5156 28.979 22.5384 28.979 25.0336C28.979 27.5289 30.5588 29.5517 32.5077 29.5517Z" fill="#FBF7EE"/>
<path d="M34.5422 27.0104C35.4148 27.0104 36.1222 26.1096 36.1222 24.9983C36.1222 23.887 35.4148 22.9861 34.5422 22.9861C33.6695 22.9861 32.9622 23.887 32.9622 24.9983C32.9622 26.1096 33.6695 27.0104 34.5422 27.0104Z" fill="#1F252C"/>
<path d="M50.1136 39.4357C49.9178 39.4312 49.7245 39.3905 49.5436 39.3158L39.9441 35.615L39.9171 35.6048C39.8027 35.5666 39.6953 35.5101 39.5991 35.4374L39.5879 35.4282C39.5006 35.3302 39.4349 35.2148 39.3953 35.0896C39.3557 34.9645 39.3431 34.8324 39.3583 34.702C39.3806 34.4909 39.5572 34.2984 39.8092 34.2129C39.8163 34.2119 39.8235 34.2119 39.8306 34.2129C39.8771 34.2129 39.9236 34.2064 39.9664 34.2064C40.2079 34.2137 40.4458 34.268 40.6665 34.3663L40.7595 34.4016C43.0711 35.2589 45.0107 35.9823 46.9614 36.7346C47.5984 36.98 48.2335 37.258 48.8481 37.5268C49.0731 37.6259 49.2987 37.7245 49.525 37.8225C49.7286 37.9154 49.9294 38.014 50.1173 38.1116C50.8611 38.5077 50.8026 38.9159 50.704 39.1242C50.6054 39.3325 50.3999 39.4357 50.1136 39.4357Z" fill="#1F252C"/>
<path d="M39.9661 34.2956C40.2757 34.2956 40.5026 34.4016 40.7286 34.4816C42.8002 35.2496 44.8681 36.0205 46.9296 36.8136C47.7943 37.1465 48.6386 37.5333 49.4894 37.9006C49.6846 37.9861 49.8799 38.0865 50.0761 38.186C50.5754 38.4538 50.7679 38.769 50.6219 39.0768C50.5401 39.2497 50.3569 39.339 50.1133 39.339C49.9291 39.3341 49.7472 39.2957 49.5768 39.2256L39.9773 35.5249C39.8613 35.488 39.7523 35.432 39.6546 35.3594C39.5767 35.2713 39.5182 35.1679 39.483 35.0557C39.4477 34.9436 39.4365 34.8253 39.4501 34.7085C39.4668 34.5523 39.5979 34.3784 39.8387 34.2966C39.8824 34.2966 39.9252 34.291 39.9661 34.291M39.9661 34.105C39.9187 34.105 39.8731 34.105 39.822 34.1115C39.8071 34.1128 39.7924 34.1159 39.7783 34.1208C39.4928 34.2138 39.2911 34.4407 39.265 34.689C39.2488 34.8326 39.2632 34.9781 39.3072 35.1157C39.3513 35.2534 39.4241 35.3802 39.5207 35.4877C39.5275 35.4949 39.535 35.5015 39.543 35.5072C39.6463 35.5853 39.7616 35.6463 39.8843 35.6876L39.9113 35.6978L49.5098 39.3985C49.7017 39.4766 49.9062 39.5192 50.1133 39.524C50.4332 39.524 50.6796 39.3892 50.7902 39.1521C50.8832 38.9615 51.0013 38.4668 50.1644 38.0187C49.9785 37.9257 49.7702 37.8169 49.5647 37.7267L48.8859 37.431C48.2713 37.1614 47.6353 36.8824 46.9965 36.636C45.0485 35.8875 43.108 35.1622 40.7937 34.304L40.7007 34.2677C40.4692 34.1656 40.22 34.1093 39.967 34.1022L39.9661 34.105Z" fill="#1F252C"/>
<path d="M40.3259 31.1138C39.9837 31.1138 39.7764 30.9613 39.6927 30.6488C39.5783 30.2211 39.7987 29.8957 40.2961 29.7562L40.9117 29.5823C42.1735 29.2262 43.4789 28.8571 44.776 28.5446C45.7105 28.3196 46.6701 28.1337 47.5981 27.9542C47.9923 27.878 48.3866 27.8017 48.7808 27.7227C48.9668 27.6855 49.1416 27.6604 49.2922 27.6418C49.3508 27.6338 49.4098 27.6298 49.4689 27.6297C49.8929 27.6297 50.037 27.8808 50.0835 28.0946C50.1662 28.4721 49.9645 28.7808 49.5563 28.9008C49.2708 28.9863 48.9714 29.0505 48.6832 29.1128C48.5084 29.1509 48.328 29.1899 48.1532 29.2327C45.8559 29.7968 43.5589 30.3631 41.2622 30.9315L40.6374 31.0914H40.6262C40.5267 31.105 40.4264 31.1125 40.3259 31.1138Z" fill="#1F252C"/>
<path d="M49.4691 27.7208C49.7202 27.7208 49.9276 27.8138 49.9926 28.1104C50.0717 28.4703 49.8504 28.713 49.5277 28.8069C49.073 28.9426 48.5979 29.0235 48.133 29.1379C45.8357 29.7026 43.5387 30.2689 41.2421 30.8367L40.6107 30.9966C40.5152 31.0109 40.419 31.019 40.3225 31.0208C40.076 31.0208 39.865 30.9436 39.7794 30.6247C39.6613 30.1849 39.9496 29.9478 40.3178 29.8446C41.8055 29.4261 43.2932 28.9956 44.794 28.6358C46.1171 28.3169 47.4607 28.0835 48.7922 27.8148C48.9587 27.7804 49.1279 27.7562 49.2962 27.7348C49.351 27.7272 49.4063 27.7232 49.4617 27.7227M49.4617 27.5367C49.3995 27.5372 49.3374 27.5419 49.2757 27.5507C49.1242 27.5693 48.9429 27.5944 48.7588 27.6325C48.3654 27.7116 47.9647 27.7887 47.577 27.864C46.6471 28.0435 45.6875 28.2295 44.7503 28.4545C43.4485 28.7678 42.1468 29.137 40.8841 29.494L40.2676 29.6679C39.7218 29.8213 39.4717 30.197 39.599 30.674C39.692 31.0282 39.9375 31.2086 40.3225 31.2086C40.4267 31.207 40.5308 31.1986 40.6339 31.1835H40.6563L41.282 31.0236C43.5675 30.4583 45.8865 29.8864 48.172 29.3248C48.3459 29.282 48.5254 29.243 48.6993 29.2058C48.9903 29.1435 49.2906 29.0784 49.5798 28.9919C50.0317 28.859 50.2641 28.5 50.1702 28.077C50.0949 27.732 49.8439 27.5414 49.4654 27.5414L49.4617 27.5367Z" fill="#1F252C"/>
<path d="M40.3752 43.341C40.0863 43.3329 39.8032 43.2584 39.5477 43.1234C37.2092 41.7733 35.7038 39.7156 35.0696 37.0042C35.0404 36.8746 35.0282 36.7418 35.0334 36.609C35.0427 36.3189 35.1078 35.9256 35.5624 35.8652C35.597 35.8604 35.6317 35.858 35.6666 35.8577C35.9604 35.8577 36.1696 36.0511 36.2868 36.4324C37.0688 38.9661 38.443 40.8369 40.4896 42.1499C40.6099 42.2385 40.7162 42.3448 40.8048 42.4651C40.8336 42.5004 40.8597 42.5339 40.8829 42.558C40.8977 42.5738 40.9066 42.5941 40.908 42.6157C40.9257 42.8816 40.8755 43.0806 40.7592 43.2033C40.7132 43.251 40.6576 43.2882 40.596 43.3126C40.5344 43.337 40.4683 43.3479 40.4022 43.3447L40.3752 43.341Z" fill="#1F252C"/>
<path d="M35.6668 35.9461C35.9671 35.9461 36.114 36.1822 36.1987 36.4547C36.9425 38.8722 38.288 40.8425 40.4396 42.2196C40.6088 42.333 40.7288 42.5208 40.8115 42.6138C40.8385 43.0295 40.6925 43.2443 40.3987 43.2443H40.3754C40.1004 43.2374 39.8307 43.1664 39.5879 43.0369C37.2196 41.6701 35.7756 39.6254 35.1573 36.9791C35.1289 36.8573 35.1173 36.7321 35.1229 36.6072C35.1331 36.2957 35.2084 35.9991 35.572 35.947C35.6028 35.9425 35.6338 35.9403 35.6649 35.9405M35.6649 35.7545C35.6257 35.7546 35.5866 35.7574 35.5478 35.7629C34.9629 35.8456 34.9443 36.4138 34.9387 36.5997C34.9332 36.74 34.9463 36.8804 34.9778 37.0172C35.6175 39.7555 37.1378 41.8337 39.4968 43.195H39.5023C39.7708 43.3376 40.0687 43.4159 40.3726 43.4237H40.4005C40.4793 43.4266 40.5578 43.4129 40.631 43.3836C40.7042 43.3543 40.7705 43.31 40.8255 43.2536C40.9594 43.1104 41.0179 42.8891 40.9994 42.5952C40.9965 42.5521 40.9788 42.5114 40.9491 42.4799C40.9296 42.4586 40.9027 42.426 40.8757 42.3916C40.7818 42.2645 40.6693 42.1522 40.5419 42.0587C38.5111 40.757 37.1489 38.902 36.3744 36.3868C36.2433 35.9628 36.0025 35.7471 35.6649 35.7471V35.7545Z" fill="#1F252C"/>
<path d="M20.2952 48.1821C20.0242 48.1823 19.7628 48.0812 19.5624 47.8987C19.362 47.7162 19.237 47.4654 19.212 47.1955L18.947 44.3633C18.9337 44.2155 18.9508 44.0665 18.9972 43.9256C19.0435 43.7846 19.1182 43.6546 19.2165 43.5435C19.3149 43.4324 19.435 43.3426 19.5693 43.2796C19.7036 43.2165 19.8494 43.1815 19.9977 43.1768L25.0792 42.9908H25.1192C25.2718 42.9909 25.4228 43.0226 25.5625 43.0841C25.7023 43.1456 25.8277 43.2354 25.9309 43.3479C26.0323 43.4593 26.1095 43.5905 26.1575 43.7333C26.2055 43.8761 26.2234 44.0273 26.2098 44.1773L25.9309 47.2188C25.9062 47.49 25.7804 47.7421 25.5786 47.925C25.3767 48.1079 25.1135 48.2083 24.8411 48.2062L20.2952 48.1821Z" fill="#FBF7EE"/>
<path d="M25.1695 43.4008C25.2336 43.4003 25.2972 43.4134 25.3561 43.4394C25.415 43.4653 25.4679 43.5034 25.5116 43.5514C25.5553 43.5993 25.5887 43.656 25.6097 43.7179C25.6308 43.7797 25.639 43.8454 25.6338 43.9106L25.3406 47.1751C25.3291 47.2924 25.2751 47.401 25.1892 47.4796C25.1033 47.5582 24.9917 47.6013 24.8763 47.6002L20.109 47.5712C19.9941 47.5716 19.8832 47.5282 19.7979 47.4497C19.7126 47.3711 19.6591 47.2629 19.6477 47.1462L19.3691 44.1072C19.3637 44.0432 19.3712 43.9788 19.3912 43.9179C19.4111 43.8571 19.443 43.801 19.4849 43.7531C19.5268 43.7053 19.5779 43.6667 19.635 43.6397C19.692 43.6128 19.7539 43.598 19.8168 43.5963L25.1597 43.3968H25.1763M25.1763 42H25.1109L19.7679 42.1995C19.518 42.2091 19.2726 42.2704 19.0467 42.3797C18.8207 42.4889 18.6188 42.6439 18.4532 42.8351C18.29 43.0249 18.1664 43.2467 18.0898 43.4868C18.0132 43.7269 17.9851 43.9804 18.0074 44.2319L18.2782 47.2799C18.3201 47.7421 18.5295 48.1716 18.8654 48.4844C19.2014 48.7972 19.6396 48.9708 20.0944 48.971L24.8616 49H24.8723C25.3298 49.0028 25.7716 48.83 26.1101 48.5158C26.4485 48.2016 26.6588 47.769 26.6993 47.3039L26.9925 44.0403C27.0155 43.7815 26.9853 43.5206 26.9039 43.2744C26.8225 43.0282 26.6916 42.802 26.5197 42.6103C26.3477 42.4187 26.1385 42.2658 25.9053 42.1614C25.6721 42.0569 25.4202 42.0033 25.1656 42.004L25.1763 42Z" fill="#1F252C"/>
<path d="M22.4246 43.2921L22.6049 45.5748" stroke="#1F252C" stroke-width="1.30176" stroke-linecap="round" stroke-linejoin="round"/>
<path d="M60.8173 21.4547C60.7568 24.0871 60.0009 26.4758 58.2956 28.5214C58.0839 28.7675 57.845 28.9886 57.5833 29.1807C57.3397 29.3666 57.0347 29.4819 56.7865 29.2104C56.5382 28.9389 56.7018 28.6785 56.8794 28.4173C57.4978 27.4967 58.2472 26.6292 58.6814 25.6278C59.9321 22.7351 59.8744 19.8043 58.4257 16.9804C57.4085 14.999 55.0784 13.8701 53.0597 14.3193C51.8444 14.5898 50.7947 15.2491 49.8983 16.0943C49.1675 16.7777 48.5343 17.5662 47.8583 18.3091C47.7242 18.4784 47.5782 18.6378 47.4213 18.7861C47.1702 18.9916 46.8317 19.0651 46.6337 18.7982C46.5054 18.6243 46.4691 18.2403 46.576 18.0544C46.9364 17.4442 47.3453 16.8639 47.7988 16.3193C49.055 14.8251 50.5204 13.6098 52.4637 13.1142C55.5405 12.3294 58.8293 14.0887 60.0083 17.1933C60.5402 18.5513 60.8146 19.9964 60.8173 21.4547Z" fill="#1F252C" stroke="#1F252C" stroke-width="0.37193" stroke-linejoin="round"/>
<path d="M4.399 32.2621C6.82851 32.2621 8.79801 30.4212 8.79801 28.1504C8.79801 25.8796 6.82851 24.0387 4.399 24.0387C1.9695 24.0387 0 25.8796 0 28.1504C0 30.4212 1.9695 32.2621 4.399 32.2621Z" fill="#1F252C"/>
</svg>
